<?xml version="1.0" standalone="no"?>
<!DOCTYPE svg PUBLIC "-//W3C//DTD SVG 20010904//EN"
 "http://www.w3.org/TR/2001/REC-SVG-20010904/DTD/svg10.dtd">
<svg version="1.0" xmlns="http://www.w3.org/2000/svg"
 width="2727.000000pt" height="2727.000000pt" viewBox="0 0 2727.000000 2727.000000"
 preserveAspectRatio="xMidYMid meet">
<metadata>
Created by potrace 1.11, written by Peter Selinger 2001-2013
</metadata>
<g transform="translate(0.000000,2727.000000) scale(0.100000,-0.100000)"
fill="#000000" stroke="none">
<path d="M13090 25469 c-588 -27 -1221 -105 -1791 -219 -2644 -532 -5029
-1954 -6764 -4035 -1505 -1805 -2433 -3996 -2679 -6325 -50 -476 -60 -686 -60
-1260 0 -574 10 -784 60 -1260 323 -3058 1827 -5867 4199 -7845 2481 -2069
5662 -3025 8895 -2674 3026 328 5830 1837 7795 4194 1538 1845 2478 4106 2694
6480 40 443 46 573 46 1110 -1 568 -11 782 -61 1255 -173 1638 -678 3196
-1499 4630 -1045 1825 -2592 3369 -4416 4408 -1527 869 -3189 1380 -4939 1517
-438 34 -1052 44 -1480 24z m1945 -4793 c280 -40 541 -108 780 -203 1040 -413
1727 -1288 1902 -2423 14 -92 17 -180 18 -440 0 -179 -3 -395 -8 -480 l-7
-155 67 -50 c38 -27 300 -205 583 -395 723 -485 916 -629 1182 -881 503 -475
843 -1086 978 -1759 52 -258 64 -380 64 -670 0 -332 -23 -523 -96 -815 -177
-710 -584 -1337 -1148 -1769 -233 -179 -1209 -806 -2300 -1478 -532 -327
-1000 -611 -2245 -1356 -610 -366 -1325 -796 -1588 -955 -264 -159 -482 -285
-486 -281 -21 24 -844 1368 -845 1381 -1 8 409 264 1054 657 3714 2264 4986
3050 5232 3237 104 79 271 241 351 339 188 233 316 499 377 785 31 143 39 438
16 592 -41 278 -150 561 -309 798 -419 625 -1270 856 -2072 563 -173 -64 -319
-142 -770 -413 -640 -385 -1830 -1114 -1833 -1123 -2 -7 456 -783 471 -798 3
-3 443 258 978 580 751 451 977 582 985 573 17 -17 836 -1368 832 -1371 -35
-29 -3331 -2027 -3339 -2024 -6 2 -777 1263 -1715 2803 -1351 2219 -1702 2801
-1692 2811 18 16 3316 2024 3325 2024 9 0 843 -1360 843 -1375 0 -5 -429 -274
-952 -597 -524 -323 -953 -591 -953 -597 0 -16 360 -661 369 -661 4 0 88 51
185 113 97 63 405 257 684 431 718 448 1015 644 1367 905 359 265 480 377 596
551 190 286 266 627 219 982 -92 694 -574 1196 -1287 1340 -97 19 -143 23
-323 22 -178 0 -225 -3 -311 -22 -129 -28 -238 -64 -339 -111 -197 -92 -1487
-863 -3540 -2116 -533 -325 -1070 -652 -1192 -726 -122 -74 -223 -137 -223
-141 0 -5 860 -1423 1910 -3153 1051 -1730 1910 -3149 1910 -3154 0 -11 -1348
-843 -1360 -839 -7 2 -1928 3139 -4696 7669 -2 4 58 45 134 91 75 47 380 236
677 420 953 591 1472 907 3920 2393 1348 818 1323 804 1496 890 415 208 848
337 1311 390 163 19 657 13 813 -9z"/>
</g>
</svg>
